<svg width="184" height="48" viewBox="0 0 184 48" fill="none" xmlns="http://www.w3.org/2000/svg">
<path d="M41.4678 23.9824L17.373 48H0L24.0947 23.9824L0.0439453 0H17.417L41.4678 23.9824ZM64.3086 18.6982V0H76.5928V48H64.3086V29.2588L45.5049 48H28.5957L52.6904 23.9824L28.6396 0H45.5479L64.3086 18.6982ZM97.7744 0V48H85.4902V0H97.7744ZM118.965 18.7412L137.76 0H154.677L130.582 24.0264L154.633 48H137.716L118.965 29.3018V48H106.681V0H118.965V18.7412ZM159.178 24.0264L183.22 48H165.855L141.805 24.0264L165.899 0H183.272L159.178 24.0264Z" fill="#CF2C67" style="fill:#CF2C67;fill:color(display-p3 0.8118 0.1725 0.4039);fill-opacity:1;"/>
</svg>
